PathFileType	4	(X/Y/Z)	12_2_48_p0_0-282_filt_butterworth.trc
DataRate	CameraRate	NumFrames	NumMarkers	Units	OrigDataRate	OrigDataStartFrame	OrigNumFrames
59.0	59.0	5	27	m	59.0	105	282
Frame#	Time	RHip			RKnee			RAnkle			RBigToe			RSmallToe			RHeel			LHip			LKnee			LAnkle			LBigToe			LSmallToe			LHeel			Neck			Head			Nose			RShoulder			RElbow			RWrist			RThumb			RIndex			RPinky			LShoulder			LElbow			LWrist			LThumb			LIndex			LPinky			
		X1	Y1	Z1	X2	Y2	Z2	X3	Y3	Z3	X4	Y4	Z4	X5	Y5	Z5	X6	Y6	Z6	X7	Y7	Z7	X8	Y8	Z8	X9	Y9	Z9	X10	Y10	Z10	X11	Y11	Z11	X12	Y12	Z12	X13	Y13	Z13	X14	Y14	Z14	X15	Y15	Z15	X16	Y16	Z16	X17	Y17	Z17	X18	Y18	Z18	X19	Y19	Z19	X20	Y20	Z20	X21	Y21	Z21	X22	Y22	Z22	X23	Y23	Z23	X24	Y24	Z24	X25	Y25	Z25	X26	Y26	Z26	X27	Y27	Z27	
105	1.7796610169491525	0.4186571414978816	0.9843903160668496	0.5131625699618751	0.46098159865720967	0.5446954493722356	0.5355053325649974	0.5053816700976365	0.12180062260932292	0.5718822901469273	0.4726407090204249	0.11766598386508036	0.3887400684033807	0.5411662947590969	0.1274780894646693	0.41874018710953265	0.49048454986753626	0.026013534096237426	0.6554212600075001	0.21924441074754844	0.9845298357602401	0.5077406116480653	0.2680153097018437	0.5357130324554991	0.5331464319888088	0.3145155268062166	0.11653757592723049	0.5727632568356799	0.32564431705060154	0.1151072228491312	0.3800948539079841	0.25551889895315993	0.11660833676181342	0.41563668482374944	0.3298625538166923	0.05499056588656408	0.6121886687102222	0.29732028517443676	1.5202703294369533	0.5248802726018006	0.29091232301742037	1.7696180967504282	0.49987493315390913	0.2879412360890718	1.6540763138086292	0.39471802367145	0.4517019510433879	1.4316630789691547	0.5283002587085763	0.5045429968940247	1.187036609866521	0.5332710728647182	0.5198841710906681	0.9409269486788091	0.48556516125225113	0.47739619132968103	0.8396843227141745	0.41508418884369847	0.49471515585837367	0.8353913512117517	0.4124059142583436	0.5343572311759417	0.8177866569999055	0.468286967009959	0.15196094754239176	1.4493691726556446	0.5249611110955408	0.11370171369126611	1.234481725129808	0.4107784267881991	0.18297018846387308	1.3908523843388836	0.36701283516588756	0.22815409552191318	1.4931771150447353	0.3303213021621916	0.23379262725089156	1.4994819396978307	0.3143496479087323	0.2673371419309412	1.4490551516775265	0.30040636334170256	
106	1.7966101694915255	0.41845282445485665	0.9852153968028433	0.5134115442883899	0.4607722370074921	0.5442801240824924	0.5363026410934176	0.5053872737442423	0.12183291607202046	0.5718887122865455	0.47251140864363195	0.1174310718915106	0.3890586139857325	0.5410599562875799	0.12764634245976653	0.41843804013834673	0.4899797946230305	0.02666997220042617	0.6549845112726964	0.21887371078363502	0.9859395035836851	0.5075194742930196	0.26795645969573845	0.5359196021195024	0.5330387216448981	0.31462208059719393	0.11650911697797427	0.572848301912342	0.3257003935704854	0.11511080516274995	0.380079220992261	0.25553082679923567	0.11665462612117711	0.41558492371419353	0.3296086443255494	0.055000955981316026	0.6130210470110597	0.2972052350879875	1.520205802991217	0.525213911259969	0.29090041530705457	1.7695952705133193	0.5000490123175935	0.2871117018701777	1.6546395892979864	0.3973252569883094	0.45123173915585724	1.4333312706827888	0.5277498661991866	0.5045230755717007	1.1878321748674658	0.5334207462702241	0.5197608018846287	0.9419797617456636	0.48587509996381734	0.4774147281727235	0.8397154996517565	0.41497541221161327	0.49475166836418316	0.8354367303438739	0.4123094361519429	0.5343516714631914	0.8177628350005525	0.4683106664941465	0.15209021314242366	1.4500997878333874	0.5273169138560112	0.11440549146612838	1.2361987076315564	0.41136991535833584	0.1873501442515546	1.389072225018096	0.3726778296775003	0.2318897331363008	1.4907146009502876	0.32540960416970977	0.23846585135027037	1.495339108972645	0.3084569960441082	0.27378189279639426	1.446550317682665	0.28808469293014205	
107	1.8135593220338984	0.41827736889255185	0.9861515320743695	0.5138267915192107	0.46051883507786684	0.5437731661098513	0.5372731110393975	0.5053869621872774	0.12178531075783496	0.571891575660102	0.47251415339830305	0.11753877075256151	0.3888579037961387	0.5409906960227975	0.12774887025771386	0.41821429059545273	0.48936014303101116	0.027342729475398023	0.6545136801326058	0.21863543478242298	0.9872877269918234	0.5076797626487164	0.2678704574579677	0.5362509685113112	0.5329017279051911	0.31466485346336204	0.11649391156714625	0.5728898745836685	0.32572946491378	0.11508964390838913	0.38009253939505144	0.2555503756916546	0.11668214916091316	0.4155321688663338	0.3292836119720014	0.05473053982742556	0.6141279154479751	0.2971238022130299	1.520318350999252	0.5254083977585644	0.29079768165515896	1.7696160784965533	0.4997448214190047	0.2864673643620363	1.6549232750150031	0.39934797271470274	0.4510045372837534	1.4350682182948693	0.5279180579761851	0.5044956938894596	1.1885414556380687	0.5335838651983119	0.5196017043078738	0.9434690624009047	0.48614982030861614	0.4774319589450272	0.8397029779982699	0.4148354261188818	0.4947993835303538	0.8354787797512586	0.4122097589655556	0.5343394238825474	0.8177565123614768	0.4683329351379848	0.15196674631282137	1.4509407216288281	0.529323189332136	0.11515123812034553	1.2381405779045054	0.41203086464060595	0.19121796738074537	1.387837569581587	0.37599298780566826	0.23555750683928045	1.4878509316027444	0.3229840819412705	0.24524256132763272	1.49088409552679	0.3021038602063941	0.28034779631308343	1.4430073273913504	0.2756440112091452	
108	1.8305084745762712	0.4181185136184687	0.9871719227302401	0.5142646122060336	0.46022472791133845	0.5431832980827442	0.5383999370787129	0.5053744860679088	0.12166143889947799	0.5718931835630298	0.47286620311447725	0.1182455179929165	0.3878081966327235	0.5411063275451912	0.12753228632332816	0.4184916162587786	0.4886488627715739	0.028011146344360985	0.6540546432888469	0.21854483765206842	0.988591180447723	0.5082539074386504	0.26777305613936175	0.5366805116916035	0.5327960595041941	0.31461941579794483	0.11650086529831563	0.572868724492075	0.32572884723850626	0.1150540936020552	0.380123749345476	0.25557596634094426	0.11669288475460277	0.4154834018061503	0.3289290004569366	0.054292762126315265	0.6153435115206554	0.2970498375964751	1.5208042582993047	0.5255224159310865	0.2905392576736022	1.7696597396671947	0.49877135868476374	0.2859583383700931	1.654991580588509	0.40045948719967017	0.45093922785062546	1.4368362677236082	0.5284910844916193	0.5044632136366437	1.189062697237645	0.5337349878994582	0.5194296593067196	0.945162466831017	0.4863539766525318	0.47745063435727875	0.8397108522463317	0.41467530151531745	0.4948867990451784	0.8355179108839951	0.4121262418556969	0.5343295539719954	0.817761425657795	0.4683596056503788	0.15163032158873208	1.45191562730388	0.5306674202048517	0.11581181406522512	1.240150882018006	0.4124585634338937	0.19439725067068098	1.3873763780886	0.37698051690192236	0.2402687059006992	1.4852787851181242	0.3232200367172705	0.25359262407502736	1.487021154663529	0.29595277054523067	0.2867064720660787	1.4395072020656623	0.26467157507706474	
109	1.847457627118644	0.41795356895632035	0.9882025573216122	0.5145820090097241	0.45991704899192676	0.54256896578209	0.5395736480343954	0.505352052798027	0.1215301918238412	0.5718909998141705	0.47370929423283864	0.11956380311886099	0.385953103366514	0.5415055932502466	0.12683347148657567	0.41956135996411226	0.48791443927013706	0.02865518905899997	0.653634903901732	0.21859610253495818	0.9898482293284877	0.5092336443573505	0.26769020114437025	0.5371449301554732	0.5328004614975275	0.3144898494538586	0.11653375328692832	0.572784911044745	0.3256970078292035	0.11501715718210154	0.3801536251043959	0.2556030945421093	0.11668845778886854	0.4154404171862733	0.32862188467251585	0.0539041335002172	0.6164020829052712	0.2969601502361806	1.5217801962543875	0.5255564386448288	0.2901241341182816	1.7697151649335974	0.4971847891461114	0.285483725023856	1.6549665511624572	0.40055266660992445	0.4509172294624624	1.438513261225123	0.5290536916330624	0.5044286843735765	1.1893353411879368	0.5338379060996601	0.5192687078488387	0.9468290170212192	0.4864640645551917	0.47745304252143406	0.8398492562691188	0.41451991377644176	0.4950155354497209	0.8355549036409854	0.41207188385911014	0.5343370060598793	0.8177613115108965	0.4684248423888068	0.15108524982492066	1.4529449665981327	0.5311259219841477	0.11625989774876463	1.2420614995287014	0.4121929146645723	0.19694491724338892	1.3880618624942573	0.3764099159778707	0.2464419002164443	1.483364456932963	0.3266135177702808	0.26275142218017083	1.4845321362602444	0.29164945103662543	0.29283072357366113	1.4369617638083327	0.2570039126715419	
